Coordinates
version=1
nRows=21
nColumns=19
inDegrees=yes

Units are S.I. units (second, meters, Newtons, ...)
If the header above contains a line with 'inDegrees', this indicates whether rotational values are in degrees (yes) or radians (no).

endheader
time	pelvis_obliquity	pelvis_rotation	pelvis_tilt	pelvis_to_ground_tx	pelvis_to_ground_ty	pelvis_to_ground_tz	left_hip_abduction	left_hip_rotation	left_hip_flexion	left_knee_flexion	left_ankle_flexion	left_subtalar_angle	right_hip_abduction	right_hip_rotation	right_hip_flexion	right_knee_flexion	right_ankle_flexion	right_subtalar_angle
      1.58000000	     95.94118323	      3.23349651	    -11.57216347	     -1.45482406	     -0.70881188	      0.57760576	     -4.16693635	    -23.29386652	     30.84983955	    -19.53078588	    -11.35188720	     -9.36549453	     -2.24466504	      6.84220456	     10.92654453	    -34.39797523	    -18.53321115	     -9.19116268
      1.59000000	     95.96696684	      4.76680838	    -11.95695928	     -1.44244313	     -0.70803076	      0.58260866	     -4.33855864	    -24.14533700	     28.78370879	    -17.18493813	    -12.13839797	     -9.53306413	     -2.45844498	      5.39529391	     13.28515628	    -36.40229850	    -17.33605067	    -10.20225818
      1.60000000	     95.93535078	      6.31009579	    -12.11805602	     -1.43008447	     -0.70727288	      0.58730079	     -4.51870556	    -24.90418932	     26.46568535	    -14.81242326	    -12.89707702	     -9.77418415	     -2.57353372	      3.99354412	     15.36183383	    -38.29641554	    -16.31438246	    -11.25464952
      1.61000000	     95.84411768	      7.86139484	    -12.15302059	     -1.41788181	     -0.70655714	      0.59161880	     -4.66427825	    -25.56005055	     24.07321894	    -12.49827930	    -13.68574725	    -10.02964151	     -2.62481709	      2.62074528	     17.32463049	    -40.10763129	    -15.35249358	    -12.20944743
      1.62000000	     95.70110864	      9.41662298	    -12.07230790	     -1.40592318	     -0.70589484	      0.59550885	     -4.77523268	    -26.11660822	     21.66033322	    -10.29624449	    -14.48919059	    -10.28792002	     -2.63931747	      1.28258491	     19.22989500	    -41.85156594	    -14.41219319	    -13.00892074
      1.63000000	     95.52058446	     10.97649623	    -11.86402308	     -1.39427699	     -0.70529151	      0.59890832	     -4.87721164	    -26.52531625	     19.26203553	     -8.27730397	    -15.19861094	    -10.42313090	     -2.65146287	     -0.03932865	     21.10391848	    -43.55387908	    -13.53107792	    -13.63629587
      1.64000000	     95.32485873	     12.54317215	    -11.65270374	     -1.38300062	     -0.70476975	      0.60182451	     -4.89249714	    -26.95574135	     17.00998935	     -6.40396337	    -15.55357180	    -10.34874980	     -2.68528114	     -1.31054803	     23.08527617	    -45.19391763	    -12.96786563	    -14.01114241
      1.65000000	     95.15539721	     14.09185895	    -11.31586757	     -1.37209863	     -0.70429421	      0.60415274	     -4.96039943	    -27.22248321	     14.80350526	     -4.77332397	    -16.12646777	    -10.30239415	     -2.81808573	     -2.59461273	     25.06958160	    -46.83331686	    -12.13161498	    -14.37279515
      1.66000000	     95.01812597	     15.62300679	    -10.93142173	     -1.36160701	     -0.70387865	      0.60588057	     -5.03505243	    -27.27656192	     12.78246389	     -3.45819751	    -17.07219538	    -10.44433091	     -3.05557505	     -3.89330634	     27.13436034	    -48.45440572	    -10.81530186	    -14.49866162
      1.67000000	     94.95331970	     17.11690049	    -10.55667720	     -1.35148043	     -0.70353162	      0.60704502	     -5.10042196	    -27.45802564	     10.87017025	     -2.25549575	    -17.50769267	    -10.34954193	     -3.43221588	     -5.12586447	     29.29500412	    -50.01033553	     -9.97003725	    -14.45587515
      1.68000000	     94.97157667	     18.54682918	    -10.23103930	     -1.34170222	     -0.70324552	      0.60763551	     -5.16824372	    -27.67695367	      9.12629190	     -1.21140457	    -17.62356251	    -10.08742320	     -3.96443884	     -6.26098383	     31.56885163	    -51.47582342	     -9.51126334	    -14.49537106
      1.69000000	     95.06762279	     19.92484396	     -9.84040275	     -1.33219359	     -0.70301648	      0.60762996	     -5.30423229	    -27.88301965	      7.41469041	     -0.35648500	    -17.83267555	     -9.72742748	     -4.65507841	     -7.35670654	     33.79954714	    -52.82037305	     -8.79821593	    -14.45878893
      1.70000000	     95.24664863	     21.21230264	     -9.46528880	     -1.32288767	     -0.70285655	      0.60706230	     -5.48256910	    -28.06861258	      5.80284647	      0.32500812	    -17.96367472	     -9.32082052	     -5.50127226	     -8.33106960	     36.02406075	    -53.97858866	     -8.08707206	    -14.33584964
      1.71000000	     95.50951402	     22.38660500	     -9.11849406	     -1.31371140	     -0.70275912	      0.60597812	     -5.71119391	    -28.25454757	      4.26492527	      0.87069271	    -17.97009367	     -8.89600440	     -6.50213470	     -9.12899628	     38.20007384	    -54.87912368	     -7.51429454	    -14.19241433
      1.72000000	     95.83916207	     23.43125221	     -8.73137054	     -1.30455036	     -0.70271615	      0.60439570	     -6.01902459	    -28.31644973	      2.73112770	      1.25049440	    -17.92167493	     -8.29341306	     -7.64506401	     -9.72348092	     40.20731176	    -55.47283541	     -6.70385225	    -13.84176639
      1.73000000	     96.24057547	     24.34897283	     -8.52008912	     -1.29533543	     -0.70277508	      0.60244860	     -6.31683107	    -28.60562445	      1.33086072	      1.60873417	    -17.71342170	     -7.93538769	     -8.89240666	    -10.02689237	     42.18006682	    -55.64374686	     -6.54972716	    -13.76272258
      1.74000000	     96.68734693	     25.11727230	     -8.29291234	     -1.28592552	     -0.70288170	      0.60012584	     -6.69065667	    -28.82492079	     -0.10015172	      1.86080165	    -17.49044120	     -7.53498034	    -10.24598808	    -10.02656613	     43.87823991	    -55.39453074	     -6.37407576	    -13.63188993
      1.75000000	     97.15321752	     25.72069943	     -8.11927369	     -1.27623346	     -0.70304471	      0.59750678	     -7.08580010	    -29.00069476	     -1.47618074	      1.99920130	    -17.23887282	     -7.14925720	    -11.65792944	     -9.66293445	     45.32437750	    -54.69294614	     -6.25453010	    -13.47428535
      1.76000000	     97.63503013	     26.20521430	     -8.00300134	     -1.26613794	     -0.70326534	      0.59463504	     -7.49458005	    -29.15407409	     -2.80506562	      2.04660671	    -16.96591069	     -6.78592541	    -13.09599379	     -8.99684152	     46.47361888	    -53.58982890	     -6.20693976	    -13.32587927
      1.77000000	     98.06540871	     26.52117977	     -8.03311019	     -1.25558422	     -0.70354636	      0.59161051	     -7.76857302	    -29.11583706	     -3.86744987	      1.91520241	    -16.80239225	     -6.60886654	    -14.47826168	     -7.93653959	     47.41327103	    -52.09254624	     -6.20005063	    -13.24128403
      1.78000000	     98.50050809	     26.79557387	     -7.91395871	     -1.24450615	     -0.70378501	      0.58838299	     -8.25182283	    -29.37319165	     -5.20273419	      1.69682986	    -16.49277334	     -6.20922775	    -15.83826298	     -6.71209541	     47.83401813	    -50.44460316	     -6.25942359	    -13.22265675
